<svg width="1275" height="1275" viewBox="0 0 1275 1275" fill="none" xmlns="http://www.w3.org/2000/svg">
<g filter="url(#filter0_i_287_609)">
<path d="M1104.17 986.746L1088.84 568.556C1088.84 568.556 1253.38 577.402 1273.54 759.958C1293.38 939.522 1104.17 986.746 1104.17 986.746Z" fill="url(#paint0_linear_287_609)"/>
<path d="M1104.17 986.746L1088.84 568.556C1088.84 568.556 1119.4 570.198 1155.79 586.677C1159.82 588.503 1188.05 666.67 1192.89 768.805C1197.27 861.186 1172.72 956.776 1167.88 959.571C1133.52 979.421 1104.17 986.746 1104.17 986.746Z" fill="url(#paint1_linear_287_609)"/>
<path d="M170.833 986.746L186.157 568.556C186.157 568.556 21.6207 577.402 1.45697 759.958C-18.3762 939.522 170.833 986.746 170.833 986.746Z" fill="url(#paint2_linear_287_609)"/>
<path d="M170.833 986.746L186.157 568.556C186.157 568.556 155.602 570.198 119.213 586.677C115.181 588.503 86.9513 666.67 82.112 768.805C77.7348 861.186 102.276 956.776 107.115 959.571C141.484 979.421 170.833 986.746 170.833 986.746Z" fill="url(#paint3_linear_287_609)"/>
<path d="M1065.76 514.267C870.61 303.564 430.199 272.198 221.304 502.204C107.996 626.963 122.22 968.667 210.818 1055.5C352.769 1194.63 929.485 1189.08 1073.02 1040.22C1139.54 971.233 1175.87 633.152 1065.76 514.267Z" fill="#EDF0FF"/>
<path d="M990.269 617.611C883.805 502.613 401.663 500.574 284.538 627.261C189.365 730.204 221.463 920.183 280.505 973.072C391.001 1072.05 889.449 1085.66 1008.82 961.814C1064.14 904.414 1081.84 716.523 990.269 617.611Z" fill="#000B35"/>
<path d="M961.956 630.719C864.135 527.056 421.133 525.217 313.516 639.419C226.07 732.216 255.562 903.471 309.811 951.148C411.336 1040.37 869.32 1052.64 979.001 940.998C1029.83 889.256 1046.09 719.883 961.956 630.719Z" fill="#001944"/>
<path d="M277.346 592.664C396.844 461.442 888.751 463.554 997.372 582.668C1047.38 637.503 1065.44 718.738 1062.78 791.522C1059.76 727.698 1040.35 661.349 997.517 614.368C888.852 495.187 396.744 493.074 277.198 624.371C237.012 668.506 219.056 728.078 216.083 786.643C213.429 718.525 229.857 644.812 277.346 592.664Z" fill="#7C91D9"/>
<path d="M772.675 248.478C772.675 319.987 714.538 377.957 642.821 377.957C571.104 377.957 512.966 319.987 512.966 248.478C512.966 176.969 571.104 119 642.821 119C714.538 119 772.675 176.969 772.675 248.478Z" fill="#FF3419"/>
<path d="M733.961 248.479C733.961 298.668 693.156 339.355 642.821 339.355C592.486 339.355 551.681 298.668 551.681 248.479C551.681 198.289 592.486 157.602 642.821 157.602C693.156 157.602 733.961 198.289 733.961 248.479Z" fill="#FF8B0A"/>
<path d="M704.925 200.226C704.925 223.766 677.12 242.849 642.821 242.849C608.521 242.849 580.716 223.766 580.716 200.226C580.716 176.686 608.522 157.602 642.821 157.602C677.12 157.602 704.925 176.686 704.925 200.226Z" fill="#FEFE30"/>
<path d="M357.303 472.859C339.071 482.339 335.527 456.778 346.817 448.733C495.33 342.911 822.676 366.714 929.147 448.733C947.699 463.025 930.288 477.999 913.822 470.447C792.841 414.956 488.772 404.501 357.303 472.859Z" fill="#0070FD"/>
<path d="M543.003 413.332C514.773 414.94 517.041 395.952 523.644 384.38C547.034 343.388 595.427 315.896 636.561 315.239C677.695 314.581 735.768 344.192 756.738 384.38C763.067 396.508 758.325 414.434 735.768 413.332C653.5 409.31 582.86 411.061 543.003 413.332Z" fill="#09153F"/>
<path d="M424.481 611.005C430.307 620.797 415.86 640.075 392.212 654.064C368.565 668.052 344.671 671.455 338.845 661.663C333.019 651.871 347.466 632.593 371.114 618.604C394.761 604.616 418.655 601.213 424.481 611.005Z" fill="#E6E4E7" fill-opacity="0.2"/>
</g>
<g filter="url(#filter1_i_287_609)">
<path d="M381 788L468.5 700L556 788" stroke="#31FF69" stroke-width="30" stroke-linecap="round" stroke-linejoin="round"/>
</g>
<g filter="url(#filter2_i_287_609)">
<path d="M719 779L806.5 692L894 779" stroke="#31FF69" stroke-width="30" stroke-linecap="round" stroke-linejoin="round"/>
</g>
<g filter="url(#filter3_i_287_609)">
<path d="M706 908C706 908 665.267 910.924 638.8 910.999C611.713 911.075 570 908 570 908" stroke="#31FF69" stroke-width="30" stroke-linecap="round" stroke-linejoin="round"/>
</g>
<defs>
<filter id="filter0_i_287_609" x="-4" y="115" width="1279" height="1041" filterUnits="userSpaceOnUse" color-interpolation-filters="sRGB">
<feFlood flood-opacity="0" result="BackgroundImageFix"/>
<feBlend mode="normal" in="SourceGraphic" in2="BackgroundImageFix" result="shape"/>
<feColorMatrix in="SourceAlpha" type="matrix" values="0 0 0 0 0 0 0 0 0 0 0 0 0 0 0 0 0 0 127 0" result="hardAlpha"/>
<feOffset dx="-9" dy="-6"/>
<feGaussianBlur stdDeviation="2"/>
<feComposite in2="hardAlpha" operator="arithmetic" k2="-1" k3="1"/>
<feColorMatrix type="matrix" values="0 0 0 0 0.0878906 0 0 0 0 0.3125 0 0 0 0 0.0195312 0 0 0 0.2 0"/>
<feBlend mode="normal" in2="shape" result="effect1_innerShadow_287_609"/>
</filter>
<filter id="filter1_i_287_609" x="362" y="681" width="209" height="122" filterUnits="userSpaceOnUse" color-interpolation-filters="sRGB">
<feFlood flood-opacity="0" result="BackgroundImageFix"/>
<feBlend mode="normal" in="SourceGraphic" in2="BackgroundImageFix" result="shape"/>
<feColorMatrix in="SourceAlpha" type="matrix" values="0 0 0 0 0 0 0 0 0 0 0 0 0 0 0 0 0 0 127 0" result="hardAlpha"/>
<feOffset dx="-9" dy="-6"/>
<feGaussianBlur stdDeviation="2"/>
<feComposite in2="hardAlpha" operator="arithmetic" k2="-1" k3="1"/>
<feColorMatrix type="matrix" values="0 0 0 0 0.0878906 0 0 0 0 0.3125 0 0 0 0 0.0195312 0 0 0 0.2 0"/>
<feBlend mode="normal" in2="shape" result="effect1_innerShadow_287_609"/>
</filter>
<filter id="filter2_i_287_609" x="700" y="673" width="209" height="121" filterUnits="userSpaceOnUse" color-interpolation-filters="sRGB">
<feFlood flood-opacity="0" result="BackgroundImageFix"/>
<feBlend mode="normal" in="SourceGraphic" in2="BackgroundImageFix" result="shape"/>
<feColorMatrix in="SourceAlpha" type="matrix" values="0 0 0 0 0 0 0 0 0 0 0 0 0 0 0 0 0 0 127 0" result="hardAlpha"/>
<feOffset dx="-9" dy="-6"/>
<feGaussianBlur stdDeviation="2"/>
<feComposite in2="hardAlpha" operator="arithmetic" k2="-1" k3="1"/>
<feColorMatrix type="matrix" values="0 0 0 0 0.0878906 0 0 0 0 0.3125 0 0 0 0 0.0195312 0 0 0 0.2 0"/>
<feBlend mode="normal" in2="shape" result="effect1_innerShadow_287_609"/>
</filter>
<filter id="filter3_i_287_609" x="550.999" y="889" width="170.002" height="37.0005" filterUnits="userSpaceOnUse" color-interpolation-filters="sRGB">
<feFlood flood-opacity="0" result="BackgroundImageFix"/>
<feBlend mode="normal" in="SourceGraphic" in2="BackgroundImageFix" result="shape"/>
<feColorMatrix in="SourceAlpha" type="matrix" values="0 0 0 0 0 0 0 0 0 0 0 0 0 0 0 0 0 0 127 0" result="hardAlpha"/>
<feOffset dx="-9" dy="-6"/>
<feGaussianBlur stdDeviation="2"/>
<feComposite in2="hardAlpha" operator="arithmetic" k2="-1" k3="1"/>
<feColorMatrix type="matrix" values="0 0 0 0 0.0878906 0 0 0 0 0.3125 0 0 0 0 0.0195312 0 0 0 0.2 0"/>
<feBlend mode="normal" in2="shape" result="effect1_innerShadow_287_609"/>
</filter>
<linearGradient id="paint0_linear_287_609" x1="637.5" y1="119" x2="665.354" y2="764.586" gradientUnits="userSpaceOnUse">
<stop stop-color="#FF820D"/>
<stop offset="0.451923" stop-color="#FFA642"/>
<stop offset="0.557692" stop-color="#FFBC72"/>
<stop offset="1" stop-color="#FF8900"/>
</linearGradient>
<linearGradient id="paint1_linear_287_609" x1="358.087" y1="119" x2="358.087" y2="1156" gradientUnits="userSpaceOnUse">
<stop stop-color="#005EF7"/>
<stop offset="0.466346" stop-color="#00128B"/>
<stop offset="0.600962" stop-color="#2945FD"/>
<stop offset="1" stop-color="#01245C"/>
</linearGradient>
<linearGradient id="paint2_linear_287_609" x1="637.5" y1="119" x2="665.354" y2="764.586" gradientUnits="userSpaceOnUse">
<stop stop-color="#FF820D"/>
<stop offset="0.451923" stop-color="#FFA642"/>
<stop offset="0.557692" stop-color="#FFBC72"/>
<stop offset="1" stop-color="#FF8900"/>
</linearGradient>
<linearGradient id="paint3_linear_287_609" x1="916.912" y1="119" x2="916.912" y2="1156" gradientUnits="userSpaceOnUse">
<stop stop-color="#005EF7"/>
<stop offset="0.466346" stop-color="#00128B"/>
<stop offset="0.600962" stop-color="#2945FD"/>
<stop offset="1" stop-color="#01245C"/>
</linearGradient>
</defs>
</svg>
